<?xml version="1.0" encoding="UTF-8" standalone="no"?>
<!DOCTYPE svg PUBLIC "-//W3C//DTD SVG 1.1//EN"
 "http://www.w3.org/Graphics/SVG/1.1/DTD/svg11.dtd">
<!-- Generated by graphviz version 2.36.0 (20140111.2315)
 -->
<!-- Title: G Pages: 1 -->
<svg width="2453pt" height="1498pt"
 viewBox="0.00 0.00 2452.84 1498.00" xmlns="http://www.w3.org/2000/svg" xmlns:xlink="http://www.w3.org/1999/xlink">
<g id="graph0" class="graph" transform="scale(1 1) rotate(0) translate(4 1494)">
<title>G</title>
<polygon fill="white" stroke="none" points="-4,4 -4,-1494 2448.84,-1494 2448.84,4 -4,4"/>
<!-- n1 -->
<g id="node1" class="node"><title>n1</title>
<g id="a_node1"><a xlink:title="[[string &quot;x = nn.Identity()()...&quot;]]:47_">
<ellipse fill="none" stroke="black" cx="1148" cy="-150" rx="124.176" ry="37.4533"/>
<text text-anchor="middle" x="1148" y="-161.3" font-family="Times,serif" font-size="14.00">Node1</text>
<text text-anchor="start" x="1068" y="-146.3" font-family="Times,serif" font-size="14.00">module = nn.CMulTable</text>
<text text-anchor="middle" x="1148" y="-131.3" font-family="Times,serif" font-size="14.00">mapindex = {Node4,Node5}</text>
</a>
</g>
</g>
<!-- n2 -->
<g id="node2" class="node"><title>n2</title>
<g id="a_node2"><a xlink:title="[[C]]:&#45;1_">
<ellipse fill="none" stroke="black" cx="1224" cy="-38" rx="124.176" ry="37.4533"/>
<text text-anchor="middle" x="1224" y="-49.3" font-family="Times,serif" font-size="14.00">Node2</text>
<text text-anchor="start" x="1144" y="-34.3" font-family="Times,serif" font-size="14.00">input = {}</text>
<text text-anchor="middle" x="1224" y="-19.3" font-family="Times,serif" font-size="14.00">mapindex = {Node1,Node3}</text>
</a>
</g>
</g>
<!-- n1&#45;&gt;n2 -->
<g id="edge1" class="edge"><title>n1&#45;&gt;n2</title>
<path fill="none" stroke="black" d="M1172.89,-112.982C1179.38,-103.58 1186.46,-93.3353 1193.22,-83.5487"/>
<polygon fill="black" stroke="black" points="1196.25,-85.3159 1199.06,-75.099 1190.49,-81.3368 1196.25,-85.3159"/>
</g>
<!-- n3 -->
<g id="node3" class="node"><title>n3</title>
<g id="a_node3"><a xlink:title="[[string &quot;x = nn.Identity()()...&quot;]]:32_">
<ellipse fill="none" stroke="black" cx="1244" cy="-554" rx="124.176" ry="37.4533"/>
<text text-anchor="middle" x="1244" y="-565.3" font-family="Times,serif" font-size="14.00">Node3</text>
<text text-anchor="start" x="1164" y="-550.3" font-family="Times,serif" font-size="14.00">module = nn.CAddTable</text>
<text text-anchor="middle" x="1244" y="-535.3" font-family="Times,serif" font-size="14.00">mapindex = {Node6,Node7}</text>
</a>
</g>
</g>
<!-- n3&#45;&gt;n2 -->
<g id="edge2" class="edge"><title>n3&#45;&gt;n2</title>
<path fill="none" stroke="black" d="M1260.65,-516.626C1277.16,-477.184 1300,-411.954 1300,-353 1300,-353 1300,-353 1300,-250 1300,-188.088 1305.1,-169.028 1281,-112 1276.69,-101.794 1270.57,-91.7939 1263.92,-82.6275"/>
<polygon fill="black" stroke="black" points="1266.55,-80.3026 1257.71,-74.462 1260.98,-84.5402 1266.55,-80.3026"/>
</g>
<!-- n5 -->
<g id="node5" class="node"><title>n5</title>
<g id="a_node5"><a xlink:title="[[string &quot;x = nn.Identity()()...&quot;]]:49_">
<ellipse fill="none" stroke="black" cx="1188" cy="-352" rx="84.2187" ry="26.7407"/>
<text text-anchor="middle" x="1188" y="-355.8" font-family="Times,serif" font-size="14.00">Node5</text>
<text text-anchor="middle" x="1188" y="-340.8" font-family="Times,serif" font-size="14.00">module = nn.Tanh</text>
</a>
</g>
</g>
<!-- n3&#45;&gt;n5 -->
<g id="edge8" class="edge"><title>n3&#45;&gt;n5</title>
<path fill="none" stroke="black" d="M1233.73,-516.317C1223.58,-480.086 1208.16,-425.016 1198.08,-389.018"/>
<polygon fill="black" stroke="black" points="1201.33,-387.637 1195.27,-378.951 1194.59,-389.524 1201.33,-387.637"/>
</g>
<!-- n14 -->
<g id="node14" class="node"><title>n14</title>
<g id="a_node14"><a xlink:title="[[string &quot;x = nn.Identity()()...&quot;]]:43_">
<ellipse fill="none" stroke="black" cx="1060" cy="-453" rx="128.54" ry="26.7407"/>
<text text-anchor="middle" x="1060" y="-456.8" font-family="Times,serif" font-size="14.00">Node14</text>
<text text-anchor="middle" x="1060" y="-441.8" font-family="Times,serif" font-size="14.00">module = nn.Linear(10 &#45;&gt; 10)</text>
</a>
</g>
</g>
<!-- n3&#45;&gt;n14 -->
<g id="edge21" class="edge"><title>n3&#45;&gt;n14</title>
<path fill="none" stroke="black" d="M1184.51,-520.994C1161.81,-508.78 1136.08,-494.935 1113.93,-483.014"/>
<polygon fill="black" stroke="black" points="1115.45,-479.862 1104.99,-478.206 1112.14,-486.026 1115.45,-479.862"/>
</g>
<!-- n4 -->
<g id="node4" class="node"><title>n4</title>
<g id="a_node4"><a xlink:title="[[string &quot;x = nn.Identity()()...&quot;]]:37_">
<ellipse fill="none" stroke="black" cx="998" cy="-251" rx="96.3112" ry="26.7407"/>
<text text-anchor="middle" x="998" y="-254.8" font-family="Times,serif" font-size="14.00">Node4</text>
<text text-anchor="middle" x="998" y="-239.8" font-family="Times,serif" font-size="14.00">module = nn.Sigmoid</text>
</a>
</g>
</g>
<!-- n4&#45;&gt;n1 -->
<g id="edge3" class="edge"><title>n4&#45;&gt;n1</title>
<path fill="none" stroke="black" d="M1034.31,-226.035C1050.78,-215.167 1070.67,-202.038 1089.18,-189.82"/>
<polygon fill="black" stroke="black" points="1091.15,-192.712 1097.57,-184.282 1087.3,-186.869 1091.15,-192.712"/>
</g>
<!-- n5&#45;&gt;n1 -->
<g id="edge4" class="edge"><title>n5&#45;&gt;n1</title>
<path fill="none" stroke="black" d="M1182.77,-324.853C1176.32,-292.613 1165.25,-237.23 1157.33,-197.635"/>
<polygon fill="black" stroke="black" points="1160.73,-196.799 1155.34,-187.679 1153.87,-198.172 1160.73,-196.799"/>
</g>
<!-- n6 -->
<g id="node6" class="node"><title>n6</title>
<g id="a_node6"><a xlink:title="[[string &quot;x = nn.Identity()()...&quot;]]:33_">
<ellipse fill="none" stroke="black" cx="1793" cy="-666" rx="128.54" ry="37.4533"/>
<text text-anchor="middle" x="1793" y="-677.3" font-family="Times,serif" font-size="14.00">Node6</text>
<text text-anchor="start" x="1710" y="-662.3" font-family="Times,serif" font-size="14.00">module = nn.CMulTable</text>
<text text-anchor="middle" x="1793" y="-647.3" font-family="Times,serif" font-size="14.00">mapindex = {Node9,Node10}</text>
</a>
</g>
</g>
<!-- n6&#45;&gt;n3 -->
<g id="edge5" class="edge"><title>n6&#45;&gt;n3</title>
<path fill="none" stroke="black" d="M1688.77,-644.116C1593.61,-625.049 1453.33,-596.943 1355.86,-577.412"/>
<polygon fill="black" stroke="black" points="1356.46,-573.963 1345.97,-575.431 1355.08,-580.827 1356.46,-573.963"/>
</g>
<!-- n7 -->
<g id="node7" class="node"><title>n7</title>
<g id="a_node7"><a xlink:title="[[string &quot;x = nn.Identity()()...&quot;]]:34_">
<ellipse fill="none" stroke="black" cx="1244" cy="-666" rx="133.465" ry="37.4533"/>
<text text-anchor="middle" x="1244" y="-677.3" font-family="Times,serif" font-size="14.00">Node7</text>
<text text-anchor="start" x="1157.5" y="-662.3" font-family="Times,serif" font-size="14.00">module = nn.CMulTable</text>
<text text-anchor="middle" x="1244" y="-647.3" font-family="Times,serif" font-size="14.00">mapindex = {Node11,Node12}</text>
</a>
</g>
</g>
<!-- n7&#45;&gt;n3 -->
<g id="edge6" class="edge"><title>n7&#45;&gt;n3</title>
<path fill="none" stroke="black" d="M1244,-628.372C1244,-619.927 1244,-610.829 1244,-602.011"/>
<polygon fill="black" stroke="black" points="1247.5,-601.843 1244,-591.844 1240.5,-601.844 1247.5,-601.843"/>
</g>
<!-- n8 -->
<g id="node8" class="node"><title>n8</title>
<g id="a_node8"><a xlink:title="[[string &quot;x = nn.Identity()()...&quot;]]:38_">
<ellipse fill="none" stroke="black" cx="952" cy="-352" rx="133.465" ry="37.4533"/>
<text text-anchor="middle" x="952" y="-363.3" font-family="Times,serif" font-size="14.00">Node8</text>
<text text-anchor="start" x="865.5" y="-348.3" font-family="Times,serif" font-size="14.00">module = nn.CAddTable</text>
<text text-anchor="middle" x="952" y="-333.3" font-family="Times,serif" font-size="14.00">mapindex = {Node13,Node14}</text>
</a>
</g>
</g>
<!-- n8&#45;&gt;n4 -->
<g id="edge7" class="edge"><title>n8&#45;&gt;n4</title>
<path fill="none" stroke="black" d="M968.868,-314.698C973.092,-305.606 977.615,-295.872 981.806,-286.852"/>
<polygon fill="black" stroke="black" points="984.988,-288.31 986.028,-277.767 978.64,-285.361 984.988,-288.31"/>
</g>
<!-- n9 -->
<g id="node9" class="node"><title>n9</title>
<g id="a_node9"><a xlink:title="[[string &quot;x = nn.Identity()()...&quot;]]:15_">
<ellipse fill="none" stroke="black" cx="1793" cy="-767" rx="96.3112" ry="26.7407"/>
<text text-anchor="middle" x="1793" y="-770.8" font-family="Times,serif" font-size="14.00">Node9</text>
<text text-anchor="middle" x="1793" y="-755.8" font-family="Times,serif" font-size="14.00">module = nn.Sigmoid</text>
</a>
</g>
</g>
<!-- n9&#45;&gt;n6 -->
<g id="edge9" class="edge"><title>n9&#45;&gt;n6</title>
<path fill="none" stroke="black" d="M1793,-739.989C1793,-731.914 1793,-722.753 1793,-713.716"/>
<polygon fill="black" stroke="black" points="1796.5,-713.631 1793,-703.631 1789.5,-713.631 1796.5,-713.631"/>
</g>
<!-- n10 -->
<g id="node10" class="node"><title>n10</title>
<g id="a_node10"><a xlink:title="[[string &quot;x = nn.Identity()()...&quot;]]:3_">
<ellipse fill="none" stroke="black" cx="2294" cy="-1081" rx="94.0678" ry="26.7407"/>
<text text-anchor="middle" x="2294" y="-1084.8" font-family="Times,serif" font-size="14.00">Node10</text>
<text text-anchor="middle" x="2294" y="-1069.8" font-family="Times,serif" font-size="14.00">module = nn.Identity</text>
</a>
</g>
</g>
<!-- n10&#45;&gt;n6 -->
<g id="edge10" class="edge"><title>n10&#45;&gt;n6</title>
<path fill="none" stroke="black" d="M2367.41,-1063.98C2391.88,-1054.77 2416.56,-1040.38 2431,-1018 2449.31,-989.616 2449.57,-970.218 2431,-942 2318.4,-770.856 2074.38,-705.757 1922.88,-681.324"/>
<polygon fill="black" stroke="black" points="1923.01,-677.801 1912.59,-679.703 1921.92,-684.716 1923.01,-677.801"/>
</g>
<!-- n22 -->
<g id="node22" class="node"><title>n22</title>
<g id="a_node22"><a xlink:title="[[string &quot;x = nn.Identity()()...&quot;]]:21_">
<ellipse fill="none" stroke="black" cx="2294" cy="-980" rx="128.54" ry="26.7407"/>
<text text-anchor="middle" x="2294" y="-983.8" font-family="Times,serif" font-size="14.00">Node22</text>
<text text-anchor="middle" x="2294" y="-968.8" font-family="Times,serif" font-size="14.00">module = nn.Linear(10 &#45;&gt; 10)</text>
</a>
</g>
</g>
<!-- n10&#45;&gt;n22 -->
<g id="edge33" class="edge"><title>n10&#45;&gt;n22</title>
<path fill="none" stroke="black" d="M2294,-1053.99C2294,-1042.82 2294,-1029.58 2294,-1017.46"/>
<polygon fill="black" stroke="black" points="2297.5,-1017.18 2294,-1007.18 2290.5,-1017.18 2297.5,-1017.18"/>
</g>
<!-- n25 -->
<g id="node25" class="node"><title>n25</title>
<g id="a_node25"><a xlink:title="[[string &quot;x = nn.Identity()()...&quot;]]:11_">
<ellipse fill="none" stroke="black" cx="2019" cy="-980" rx="128.54" ry="26.7407"/>
<text text-anchor="middle" x="2019" y="-983.8" font-family="Times,serif" font-size="14.00">Node25</text>
<text text-anchor="middle" x="2019" y="-968.8" font-family="Times,serif" font-size="14.00">module = nn.Linear(10 &#45;&gt; 10)</text>
</a>
</g>
</g>
<!-- n10&#45;&gt;n25 -->
<g id="edge37" class="edge"><title>n10&#45;&gt;n25</title>
<path fill="none" stroke="black" d="M2237.02,-1059.49C2194.72,-1044.26 2136.72,-1023.38 2091.18,-1006.98"/>
<polygon fill="black" stroke="black" points="2092.25,-1003.65 2081.66,-1003.56 2089.88,-1010.24 2092.25,-1003.65"/>
</g>
<!-- n11 -->
<g id="node11" class="node"><title>n11</title>
<g id="a_node11"><a xlink:title="[[string &quot;x = nn.Identity()()...&quot;]]:5_">
<ellipse fill="none" stroke="black" cx="1296" cy="-767" rx="96.3112" ry="26.7407"/>
<text text-anchor="middle" x="1296" y="-770.8" font-family="Times,serif" font-size="14.00">Node11</text>
<text text-anchor="middle" x="1296" y="-755.8" font-family="Times,serif" font-size="14.00">module = nn.Sigmoid</text>
</a>
</g>
</g>
<!-- n11&#45;&gt;n7 -->
<g id="edge11" class="edge"><title>n11&#45;&gt;n7</title>
<path fill="none" stroke="black" d="M1282.47,-740.247C1278,-731.738 1272.89,-722.001 1267.88,-712.465"/>
<polygon fill="black" stroke="black" points="1270.88,-710.657 1263.14,-703.431 1264.69,-713.912 1270.88,-710.657"/>
</g>
<!-- n12 -->
<g id="node12" class="node"><title>n12</title>
<g id="a_node12"><a xlink:title="[[string &quot;x = nn.Identity()()...&quot;]]:25_">
<ellipse fill="none" stroke="black" cx="1096" cy="-767" rx="84.2187" ry="26.7407"/>
<text text-anchor="middle" x="1096" y="-770.8" font-family="Times,serif" font-size="14.00">Node12</text>
<text text-anchor="middle" x="1096" y="-755.8" font-family="Times,serif" font-size="14.00">module = nn.Tanh</text>
</a>
</g>
</g>
<!-- n12&#45;&gt;n7 -->
<g id="edge12" class="edge"><title>n12&#45;&gt;n7</title>
<path fill="none" stroke="black" d="M1131.07,-742.538C1147.09,-731.826 1166.5,-718.84 1184.68,-706.678"/>
<polygon fill="black" stroke="black" points="1187.12,-709.256 1193.49,-700.787 1183.23,-703.438 1187.12,-709.256"/>
</g>
<!-- n13 -->
<g id="node13" class="node"><title>n13</title>
<g id="a_node13"><a xlink:title="[[string &quot;x = nn.Identity()()...&quot;]]:39_">
<ellipse fill="none" stroke="black" cx="403" cy="-980" rx="133.465" ry="37.4533"/>
<text text-anchor="middle" x="403" y="-991.3" font-family="Times,serif" font-size="14.00">Node13</text>
<text text-anchor="start" x="316.5" y="-976.3" font-family="Times,serif" font-size="14.00">module = nn.CAddTable</text>
<text text-anchor="middle" x="403" y="-961.3" font-family="Times,serif" font-size="14.00">mapindex = {Node19,Node20}</text>
</a>
</g>
</g>
<!-- n13&#45;&gt;n8 -->
<g id="edge13" class="edge"><title>n13&#45;&gt;n8</title>
<path fill="none" stroke="black" d="M535.621,-975.789C678.608,-964.432 886,-921.502 886,-768 886,-768 886,-768 886,-553 886,-497.824 908.933,-438.203 927.762,-398.549"/>
<polygon fill="black" stroke="black" points="930.98,-399.935 932.198,-389.41 924.683,-396.878 930.98,-399.935"/>
</g>
<!-- n14&#45;&gt;n8 -->
<g id="edge14" class="edge"><title>n14&#45;&gt;n8</title>
<path fill="none" stroke="black" d="M1032.19,-426.505C1021.73,-416.918 1009.54,-405.745 997.87,-395.048"/>
<polygon fill="black" stroke="black" points="1000.04,-392.286 990.3,-388.108 995.307,-397.446 1000.04,-392.286"/>
</g>
<!-- n15 -->
<g id="node15" class="node"><title>n15</title>
<g id="a_node15"><a xlink:title="[[string &quot;x = nn.Identity()()...&quot;]]:16_">
<ellipse fill="none" stroke="black" cx="1793" cy="-868" rx="133.465" ry="37.4533"/>
<text text-anchor="middle" x="1793" y="-879.3" font-family="Times,serif" font-size="14.00">Node15</text>
<text text-anchor="start" x="1706.5" y="-864.3" font-family="Times,serif" font-size="14.00">module = nn.CAddTable</text>
<text text-anchor="middle" x="1793" y="-849.3" font-family="Times,serif" font-size="14.00">mapindex = {Node21,Node22}</text>
</a>
</g>
</g>
<!-- n15&#45;&gt;n9 -->
<g id="edge15" class="edge"><title>n15&#45;&gt;n9</title>
<path fill="none" stroke="black" d="M1793,-830.417C1793,-821.802 1793,-812.626 1793,-804.035"/>
<polygon fill="black" stroke="black" points="1796.5,-803.924 1793,-793.924 1789.5,-803.924 1796.5,-803.924"/>
</g>
<!-- n16 -->
<g id="node16" class="node"><title>n16</title>
<g id="a_node16"><a xlink:title="[[C]]:&#45;1_&#45;3">
<ellipse fill="none" stroke="black" cx="1794" cy="-1272" rx="70.5656" ry="37.4533"/>
<text text-anchor="middle" x="1794" y="-1283.3" font-family="Times,serif" font-size="14.00">Node16</text>
<text text-anchor="start" x="1752" y="-1268.3" font-family="Times,serif" font-size="14.00">input = {}</text>
<text text-anchor="middle" x="1794" y="-1253.3" font-family="Times,serif" font-size="14.00">selectindex = 3</text>
</a>
</g>
</g>
<!-- n16&#45;&gt;n10 -->
<g id="edge16" class="edge"><title>n16&#45;&gt;n10</title>
<path fill="none" stroke="black" d="M1850.87,-1249.5C1944.5,-1214.11 2130.55,-1143.78 2229.16,-1106.51"/>
<polygon fill="black" stroke="black" points="2230.59,-1109.71 2238.71,-1102.9 2228.12,-1103.16 2230.59,-1109.71"/>
</g>
<!-- n17 -->
<g id="node17" class="node"><title>n17</title>
<g id="a_node17"><a xlink:title="[[string &quot;x = nn.Identity()()...&quot;]]:6_">
<ellipse fill="none" stroke="black" cx="1400" cy="-868" rx="133.465" ry="37.4533"/>
<text text-anchor="middle" x="1400" y="-879.3" font-family="Times,serif" font-size="14.00">Node17</text>
<text text-anchor="start" x="1313.5" y="-864.3" font-family="Times,serif" font-size="14.00">module = nn.CAddTable</text>
<text text-anchor="middle" x="1400" y="-849.3" font-family="Times,serif" font-size="14.00">mapindex = {Node24,Node25}</text>
</a>
</g>
</g>
<!-- n17&#45;&gt;n11 -->
<g id="edge17" class="edge"><title>n17&#45;&gt;n11</title>
<path fill="none" stroke="black" d="M1363.04,-831.818C1352.24,-821.531 1340.48,-810.343 1329.88,-800.248"/>
<polygon fill="black" stroke="black" points="1332.04,-797.48 1322.39,-793.12 1327.22,-802.55 1332.04,-797.48"/>
</g>
<!-- n18 -->
<g id="node18" class="node"><title>n18</title>
<g id="a_node18"><a xlink:title="[[string &quot;x = nn.Identity()()...&quot;]]:26_">
<ellipse fill="none" stroke="black" cx="953" cy="-980" rx="133.465" ry="37.4533"/>
<text text-anchor="middle" x="953" y="-991.3" font-family="Times,serif" font-size="14.00">Node18</text>
<text text-anchor="start" x="866.5" y="-976.3" font-family="Times,serif" font-size="14.00">module = nn.CAddTable</text>
<text text-anchor="middle" x="953" y="-961.3" font-family="Times,serif" font-size="14.00">mapindex = {Node26,Node27}</text>
</a>
</g>
</g>
<!-- n18&#45;&gt;n12 -->
<g id="edge18" class="edge"><title>n18&#45;&gt;n12</title>
<path fill="none" stroke="black" d="M977.583,-942.728C1004.38,-903.183 1046.93,-840.404 1073.06,-801.843"/>
<polygon fill="black" stroke="black" points="1075.99,-803.771 1078.7,-793.529 1070.19,-799.844 1075.99,-803.771"/>
</g>
<!-- n19 -->
<g id="node19" class="node"><title>n19</title>
<g id="a_node19"><a xlink:title="[[string &quot;x = nn.Identity()()...&quot;]]:40_">
<ellipse fill="none" stroke="black" cx="128" cy="-1081" rx="128.54" ry="26.7407"/>
<text text-anchor="middle" x="128" y="-1084.8" font-family="Times,serif" font-size="14.00">Node19</text>
<text text-anchor="middle" x="128" y="-1069.8" font-family="Times,serif" font-size="14.00">module = nn.Linear(10 &#45;&gt; 10)</text>
</a>
</g>
</g>
<!-- n19&#45;&gt;n13 -->
<g id="edge19" class="edge"><title>n19&#45;&gt;n13</title>
<path fill="none" stroke="black" d="M190.746,-1057.41C226.921,-1044.39 273.016,-1027.79 313,-1013.4"/>
<polygon fill="black" stroke="black" points="314.267,-1016.66 322.491,-1009.98 311.896,-1010.08 314.267,-1016.66"/>
</g>
<!-- n20 -->
<g id="node20" class="node"><title>n20</title>
<g id="a_node20"><a xlink:title="[[string &quot;x = nn.Identity()()...&quot;]]:41_">
<ellipse fill="none" stroke="black" cx="403" cy="-1081" rx="128.54" ry="26.7407"/>
<text text-anchor="middle" x="403" y="-1084.8" font-family="Times,serif" font-size="14.00">Node20</text>
<text text-anchor="middle" x="403" y="-1069.8" font-family="Times,serif" font-size="14.00">module = nn.Linear(10 &#45;&gt; 10)</text>
</a>
</g>
</g>
<!-- n20&#45;&gt;n13 -->
<g id="edge20" class="edge"><title>n20&#45;&gt;n13</title>
<path fill="none" stroke="black" d="M403,-1053.99C403,-1045.91 403,-1036.75 403,-1027.72"/>
<polygon fill="black" stroke="black" points="406.5,-1027.63 403,-1017.63 399.5,-1027.63 406.5,-1027.63"/>
</g>
<!-- n21 -->
<g id="node21" class="node"><title>n21</title>
<g id="a_node21"><a xlink:title="[[string &quot;x = nn.Identity()()...&quot;]]:17_">
<ellipse fill="none" stroke="black" cx="1739" cy="-980" rx="133.465" ry="37.4533"/>
<text text-anchor="middle" x="1739" y="-991.3" font-family="Times,serif" font-size="14.00">Node21</text>
<text text-anchor="start" x="1652.5" y="-976.3" font-family="Times,serif" font-size="14.00">module = nn.CAddTable</text>
<text text-anchor="middle" x="1739" y="-961.3" font-family="Times,serif" font-size="14.00">mapindex = {Node30,Node31}</text>
</a>
</g>
</g>
<!-- n21&#45;&gt;n15 -->
<g id="edge22" class="edge"><title>n21&#45;&gt;n15</title>
<path fill="none" stroke="black" d="M1756.83,-942.677C1761.26,-933.666 1766.05,-923.895 1770.66,-914.505"/>
<polygon fill="black" stroke="black" points="1773.92,-915.804 1775.19,-905.285 1767.64,-912.719 1773.92,-915.804"/>
</g>
<!-- n22&#45;&gt;n15 -->
<g id="edge23" class="edge"><title>n22&#45;&gt;n15</title>
<path fill="none" stroke="black" d="M2219.38,-958.064C2198.9,-952.573 2176.65,-946.839 2156,-942 2075.3,-923.088 1983.81,-904.708 1912.87,-891.122"/>
<polygon fill="black" stroke="black" points="1913.48,-887.675 1903,-889.238 1912.16,-894.551 1913.48,-887.675"/>
</g>
<!-- n23 -->
<g id="node23" class="node"><title>n23</title>
<g id="a_node23"><a xlink:title="[[C]]:&#45;1_ split at [/root/torch/install/share/lua/5.1/nngraph/gmodule.lua]:72&#45;mnode">
<ellipse fill="none" stroke="black" cx="1468" cy="-1373" rx="80.415" ry="26.7407"/>
<text text-anchor="middle" x="1468" y="-1376.8" font-family="Times,serif" font-size="14.00">Node23</text>
<text text-anchor="middle" x="1468" y="-1361.8" font-family="Times,serif" font-size="14.00">nSplitOutputs = 3</text>
</a>
</g>
</g>
<!-- n23&#45;&gt;n16 -->
<g id="edge24" class="edge"><title>n23&#45;&gt;n16</title>
<path fill="none" stroke="black" d="M1526.28,-1354.3C1581.62,-1337.49 1664.89,-1312.21 1723.85,-1294.3"/>
<polygon fill="black" stroke="black" points="1724.91,-1297.64 1733.46,-1291.38 1722.88,-1290.94 1724.91,-1297.64"/>
</g>
<!-- n35 -->
<g id="node35" class="node"><title>n35</title>
<g id="a_node35"><a xlink:title="[[C]]:&#45;1_&#45;1">
<ellipse fill="none" stroke="black" cx="1269" cy="-1272" rx="70.5656" ry="37.4533"/>
<text text-anchor="middle" x="1269" y="-1283.3" font-family="Times,serif" font-size="14.00">Node35</text>
<text text-anchor="start" x="1227" y="-1268.3" font-family="Times,serif" font-size="14.00">input = {}</text>
<text text-anchor="middle" x="1269" y="-1253.3" font-family="Times,serif" font-size="14.00">selectindex = 1</text>
</a>
</g>
</g>
<!-- n23&#45;&gt;n35 -->
<g id="edge46" class="edge"><title>n23&#45;&gt;n35</title>
<path fill="none" stroke="black" d="M1424.33,-1350.27C1396.33,-1336.35 1359.62,-1318.08 1328.92,-1302.81"/>
<polygon fill="black" stroke="black" points="1330.11,-1299.49 1319.6,-1298.17 1326.99,-1305.76 1330.11,-1299.49"/>
</g>
<!-- n36 -->
<g id="node36" class="node"><title>n36</title>
<g id="a_node36"><a xlink:title="[[C]]:&#45;1_&#45;2">
<ellipse fill="none" stroke="black" cx="1468" cy="-1272" rx="70.5656" ry="37.4533"/>
<text text-anchor="middle" x="1468" y="-1283.3" font-family="Times,serif" font-size="14.00">Node36</text>
<text text-anchor="start" x="1426" y="-1268.3" font-family="Times,serif" font-size="14.00">input = {}</text>
<text text-anchor="middle" x="1468" y="-1253.3" font-family="Times,serif" font-size="14.00">selectindex = 2</text>
</a>
</g>
</g>
<!-- n23&#45;&gt;n36 -->
<g id="edge47" class="edge"><title>n23&#45;&gt;n36</title>
<path fill="none" stroke="black" d="M1468,-1345.99C1468,-1337.91 1468,-1328.75 1468,-1319.72"/>
<polygon fill="black" stroke="black" points="1471.5,-1319.63 1468,-1309.63 1464.5,-1319.63 1471.5,-1319.63"/>
</g>
<!-- n24 -->
<g id="node24" class="node"><title>n24</title>
<g id="a_node24"><a xlink:title="[[string &quot;x = nn.Identity()()...&quot;]]:7_">
<ellipse fill="none" stroke="black" cx="1400" cy="-980" rx="133.465" ry="37.4533"/>
<text text-anchor="middle" x="1400" y="-991.3" font-family="Times,serif" font-size="14.00">Node24</text>
<text text-anchor="start" x="1313.5" y="-976.3" font-family="Times,serif" font-size="14.00">module = nn.CAddTable</text>
<text text-anchor="middle" x="1400" y="-961.3" font-family="Times,serif" font-size="14.00">mapindex = {Node33,Node34}</text>
</a>
</g>
</g>
<!-- n24&#45;&gt;n17 -->
<g id="edge25" class="edge"><title>n24&#45;&gt;n17</title>
<path fill="none" stroke="black" d="M1400,-942.372C1400,-933.927 1400,-924.829 1400,-916.011"/>
<polygon fill="black" stroke="black" points="1403.5,-915.843 1400,-905.844 1396.5,-915.844 1403.5,-915.843"/>
</g>
<!-- n25&#45;&gt;n17 -->
<g id="edge26" class="edge"><title>n25&#45;&gt;n17</title>
<path fill="none" stroke="black" d="M1945.96,-957.791C1925.09,-952.175 1902.24,-946.446 1881,-942 1863.7,-938.379 1663.27,-908.267 1526.66,-887.866"/>
<polygon fill="black" stroke="black" points="1526.94,-884.368 1516.53,-886.353 1525.9,-891.292 1526.94,-884.368"/>
</g>
<!-- n26 -->
<g id="node26" class="node"><title>n26</title>
<g id="a_node26"><a xlink:title="[[string &quot;x = nn.Identity()()...&quot;]]:27_">
<ellipse fill="none" stroke="black" cx="678" cy="-1081" rx="128.54" ry="26.7407"/>
<text text-anchor="middle" x="678" y="-1084.8" font-family="Times,serif" font-size="14.00">Node26</text>
<text text-anchor="middle" x="678" y="-1069.8" font-family="Times,serif" font-size="14.00">module = nn.Linear(10 &#45;&gt; 10)</text>
</a>
</g>
</g>
<!-- n26&#45;&gt;n18 -->
<g id="edge27" class="edge"><title>n26&#45;&gt;n18</title>
<path fill="none" stroke="black" d="M740.746,-1057.41C776.921,-1044.39 823.016,-1027.79 863,-1013.4"/>
<polygon fill="black" stroke="black" points="864.267,-1016.66 872.491,-1009.98 861.896,-1010.08 864.267,-1016.66"/>
</g>
<!-- n27 -->
<g id="node27" class="node"><title>n27</title>
<g id="a_node27"><a xlink:title="[[string &quot;x = nn.Identity()()...&quot;]]:28_">
<ellipse fill="none" stroke="black" cx="953" cy="-1081" rx="128.54" ry="26.7407"/>
<text text-anchor="middle" x="953" y="-1084.8" font-family="Times,serif" font-size="14.00">Node27</text>
<text text-anchor="middle" x="953" y="-1069.8" font-family="Times,serif" font-size="14.00">module = nn.Linear(10 &#45;&gt; 10)</text>
</a>
</g>
</g>
<!-- n27&#45;&gt;n18 -->
<g id="edge28" class="edge"><title>n27&#45;&gt;n18</title>
<path fill="none" stroke="black" d="M953,-1053.99C953,-1045.91 953,-1036.75 953,-1027.72"/>
<polygon fill="black" stroke="black" points="956.5,-1027.63 953,-1017.63 949.5,-1027.63 956.5,-1027.63"/>
</g>
<!-- n28 -->
<g id="node28" class="node"><title>n28</title>
<g id="a_node28"><a xlink:title="[[string &quot;x = nn.Identity()()...&quot;]]:1_">
<ellipse fill="none" stroke="black" cx="1228" cy="-1171" rx="94.0678" ry="26.7407"/>
<text text-anchor="middle" x="1228" y="-1174.8" font-family="Times,serif" font-size="14.00">Node28</text>
<text text-anchor="middle" x="1228" y="-1159.8" font-family="Times,serif" font-size="14.00">module = nn.Identity</text>
</a>
</g>
</g>
<!-- n28&#45;&gt;n19 -->
<g id="edge29" class="edge"><title>n28&#45;&gt;n19</title>
<path fill="none" stroke="black" d="M1134.34,-1167.8C961.77,-1162.9 582.248,-1148.16 265,-1108 252.464,-1106.41 239.345,-1104.39 226.401,-1102.18"/>
<polygon fill="black" stroke="black" points="227.004,-1098.73 216.55,-1100.46 225.797,-1105.63 227.004,-1098.73"/>
</g>
<!-- n28&#45;&gt;n26 -->
<g id="edge38" class="edge"><title>n28&#45;&gt;n26</title>
<path fill="none" stroke="black" d="M1144.79,-1158.47C1061.28,-1146.67 929.012,-1127.37 815,-1108 803.533,-1106.05 791.544,-1103.92 779.633,-1101.74"/>
<polygon fill="black" stroke="black" points="780.129,-1098.27 769.66,-1099.9 778.86,-1105.16 780.129,-1098.27"/>
</g>
<!-- n30 -->
<g id="node30" class="node"><title>n30</title>
<g id="a_node30"><a xlink:title="[[string &quot;x = nn.Identity()()...&quot;]]:18_">
<ellipse fill="none" stroke="black" cx="1778" cy="-1081" rx="128.54" ry="26.7407"/>
<text text-anchor="middle" x="1778" y="-1084.8" font-family="Times,serif" font-size="14.00">Node30</text>
<text text-anchor="middle" x="1778" y="-1069.8" font-family="Times,serif" font-size="14.00">module = nn.Linear(10 &#45;&gt; 10)</text>
</a>
</g>
</g>
<!-- n28&#45;&gt;n30 -->
<g id="edge42" class="edge"><title>n28&#45;&gt;n30</title>
<path fill="none" stroke="black" d="M1303.59,-1154.85C1323.53,-1151.08 1345.04,-1147.2 1365,-1144 1486.71,-1124.5 1518.27,-1127.42 1640,-1108 1651.97,-1106.09 1664.49,-1103.94 1676.9,-1101.72"/>
<polygon fill="black" stroke="black" points="1677.6,-1105.15 1686.82,-1099.93 1676.36,-1098.26 1677.6,-1105.15"/>
</g>
<!-- n33 -->
<g id="node33" class="node"><title>n33</title>
<g id="a_node33"><a xlink:title="[[string &quot;x = nn.Identity()()...&quot;]]:8_">
<ellipse fill="none" stroke="black" cx="1228" cy="-1081" rx="128.54" ry="26.7407"/>
<text text-anchor="middle" x="1228" y="-1084.8" font-family="Times,serif" font-size="14.00">Node33</text>
<text text-anchor="middle" x="1228" y="-1069.8" font-family="Times,serif" font-size="14.00">module = nn.Linear(10 &#45;&gt; 10)</text>
</a>
</g>
</g>
<!-- n28&#45;&gt;n33 -->
<g id="edge44" class="edge"><title>n28&#45;&gt;n33</title>
<path fill="none" stroke="black" d="M1228,-1144.07C1228,-1136 1228,-1126.94 1228,-1118.3"/>
<polygon fill="black" stroke="black" points="1231.5,-1118.05 1228,-1108.05 1224.5,-1118.05 1231.5,-1118.05"/>
</g>
<!-- n29 -->
<g id="node29" class="node"><title>n29</title>
<g id="a_node29"><a xlink:title="[[string &quot;x = nn.Identity()()...&quot;]]:2_">
<ellipse fill="none" stroke="black" cx="1468" cy="-1171" rx="94.0678" ry="26.7407"/>
<text text-anchor="middle" x="1468" y="-1174.8" font-family="Times,serif" font-size="14.00">Node29</text>
<text text-anchor="middle" x="1468" y="-1159.8" font-family="Times,serif" font-size="14.00">module = nn.Identity</text>
</a>
</g>
</g>
<!-- n29&#45;&gt;n20 -->
<g id="edge30" class="edge"><title>n29&#45;&gt;n20</title>
<path fill="none" stroke="black" d="M1394.71,-1154.1C1374.18,-1150.19 1351.8,-1146.43 1331,-1144 981.467,-1103.09 889.533,-1148.91 540,-1108 527.354,-1106.52 514.121,-1104.55 501.077,-1102.36"/>
<polygon fill="black" stroke="black" points="501.603,-1098.89 491.152,-1100.64 500.408,-1105.79 501.603,-1098.89"/>
</g>
<!-- n29&#45;&gt;n27 -->
<g id="edge39" class="edge"><title>n29&#45;&gt;n27</title>
<path fill="none" stroke="black" d="M1392.01,-1155.03C1372.18,-1151.27 1350.81,-1147.36 1331,-1144 1224.22,-1125.9 1196.78,-1126.1 1090,-1108 1078.53,-1106.06 1066.54,-1103.93 1054.63,-1101.75"/>
<polygon fill="black" stroke="black" points="1055.13,-1098.28 1044.66,-1099.91 1053.86,-1105.16 1055.13,-1098.28"/>
</g>
<!-- n31 -->
<g id="node31" class="node"><title>n31</title>
<g id="a_node31"><a xlink:title="[[string &quot;x = nn.Identity()()...&quot;]]:19_">
<ellipse fill="none" stroke="black" cx="2053" cy="-1081" rx="128.54" ry="26.7407"/>
<text text-anchor="middle" x="2053" y="-1084.8" font-family="Times,serif" font-size="14.00">Node31</text>
<text text-anchor="middle" x="2053" y="-1069.8" font-family="Times,serif" font-size="14.00">module = nn.Linear(10 &#45;&gt; 10)</text>
</a>
</g>
</g>
<!-- n29&#45;&gt;n31 -->
<g id="edge43" class="edge"><title>n29&#45;&gt;n31</title>
<path fill="none" stroke="black" d="M1553.05,-1159.45C1643.11,-1147.98 1789.35,-1128.54 1915,-1108 1926.87,-1106.06 1939.28,-1103.9 1951.59,-1101.68"/>
<polygon fill="black" stroke="black" points="1952.22,-1105.13 1961.43,-1099.89 1950.97,-1098.24 1952.22,-1105.13"/>
</g>
<!-- n34 -->
<g id="node34" class="node"><title>n34</title>
<g id="a_node34"><a xlink:title="[[string &quot;x = nn.Identity()()...&quot;]]:9_">
<ellipse fill="none" stroke="black" cx="1503" cy="-1081" rx="128.54" ry="26.7407"/>
<text text-anchor="middle" x="1503" y="-1084.8" font-family="Times,serif" font-size="14.00">Node34</text>
<text text-anchor="middle" x="1503" y="-1069.8" font-family="Times,serif" font-size="14.00">module = nn.Linear(10 &#45;&gt; 10)</text>
</a>
</g>
</g>
<!-- n29&#45;&gt;n34 -->
<g id="edge45" class="edge"><title>n29&#45;&gt;n34</title>
<path fill="none" stroke="black" d="M1478.31,-1144.07C1481.63,-1135.73 1485.36,-1126.34 1488.9,-1117.44"/>
<polygon fill="black" stroke="black" points="1492.2,-1118.63 1492.64,-1108.05 1485.69,-1116.04 1492.2,-1118.63"/>
</g>
<!-- n30&#45;&gt;n21 -->
<g id="edge31" class="edge"><title>n30&#45;&gt;n21</title>
<path fill="none" stroke="black" d="M1767.75,-1053.99C1764.5,-1045.74 1760.81,-1036.36 1757.17,-1027.13"/>
<polygon fill="black" stroke="black" points="1760.35,-1025.65 1753.43,-1017.63 1753.84,-1028.22 1760.35,-1025.65"/>
</g>
<!-- n31&#45;&gt;n21 -->
<g id="edge32" class="edge"><title>n31&#45;&gt;n21</title>
<path fill="none" stroke="black" d="M1984.09,-1058.27C1940.6,-1044.56 1883.78,-1026.65 1835.8,-1011.52"/>
<polygon fill="black" stroke="black" points="1836.6,-1008.1 1826.01,-1008.43 1834.5,-1014.78 1836.6,-1008.1"/>
</g>
<!-- n32 -->
<g id="node32" class="node"><title>n32</title>
<g id="a_node32"><a xlink:title="[[C]]:&#45;1_">
<ellipse fill="none" stroke="black" cx="1468" cy="-1463" rx="51.99" ry="26.7407"/>
<text text-anchor="middle" x="1468" y="-1466.8" font-family="Times,serif" font-size="14.00">Node32</text>
<text text-anchor="middle" x="1468" y="-1451.8" font-family="Times,serif" font-size="14.00">input = {}</text>
</a>
</g>
</g>
<!-- n32&#45;&gt;n23 -->
<g id="edge34" class="edge"><title>n32&#45;&gt;n23</title>
<path fill="none" stroke="black" d="M1468,-1436.07C1468,-1428 1468,-1418.94 1468,-1410.3"/>
<polygon fill="black" stroke="black" points="1471.5,-1410.05 1468,-1400.05 1464.5,-1410.05 1471.5,-1410.05"/>
</g>
<!-- n33&#45;&gt;n24 -->
<g id="edge35" class="edge"><title>n33&#45;&gt;n24</title>
<path fill="none" stroke="black" d="M1270.52,-1055.53C1289.66,-1044.51 1312.72,-1031.24 1334.03,-1018.97"/>
<polygon fill="black" stroke="black" points="1335.8,-1021.99 1342.72,-1013.97 1332.31,-1015.92 1335.8,-1021.99"/>
</g>
<!-- n34&#45;&gt;n24 -->
<g id="edge36" class="edge"><title>n34&#45;&gt;n24</title>
<path fill="none" stroke="black" d="M1476.47,-1054.51C1466.5,-1044.92 1454.88,-1033.75 1443.75,-1023.05"/>
<polygon fill="black" stroke="black" points="1446.16,-1020.51 1436.53,-1016.11 1441.31,-1025.56 1446.16,-1020.51"/>
</g>
<!-- n35&#45;&gt;n28 -->
<g id="edge40" class="edge"><title>n35&#45;&gt;n28</title>
<path fill="none" stroke="black" d="M1254.2,-1235.26C1250.42,-1226.15 1246.37,-1216.36 1242.61,-1207.27"/>
<polygon fill="black" stroke="black" points="1245.73,-1205.65 1238.67,-1197.75 1239.26,-1208.33 1245.73,-1205.65"/>
</g>
<!-- n36&#45;&gt;n29 -->
<g id="edge41" class="edge"><title>n36&#45;&gt;n29</title>
<path fill="none" stroke="black" d="M1468,-1234.42C1468,-1225.8 1468,-1216.63 1468,-1208.04"/>
<polygon fill="black" stroke="black" points="1471.5,-1207.92 1468,-1197.92 1464.5,-1207.92 1471.5,-1207.92"/>
</g>
</g>
</svg>
