<?xml version="1.0" encoding="UTF-8" standalone="no"?>
<!DOCTYPE svg PUBLIC "-//W3C//DTD SVG 1.1//EN"
 "http://www.w3.org/Graphics/SVG/1.1/DTD/svg11.dtd">
<!-- Generated by graphviz version 2.36.0 (20140111.2315)
 -->
<!-- Title: G Pages: 1 -->
<svg width="1025pt" height="752pt"
 viewBox="0.00 0.00 1025.00 752.00" xmlns="http://www.w3.org/2000/svg" xmlns:xlink="http://www.w3.org/1999/xlink">
<g id="graph0" class="graph" transform="scale(1 1) rotate(0) translate(4 748)">
<title>G</title>
<polygon fill="white" stroke="none" points="-4,4 -4,-748 1021,-748 1021,4 -4,4"/>
<!-- n1 -->
<g id="node1" class="node"><title>n1</title>
<g id="a_node1"><a xlink:title="[[string &quot;z = nn.CAddTable()({x1, z1})...&quot;]]:1_">
<ellipse fill="none" stroke="black" cx="361" cy="-138" rx="138.951" ry="48.1667"/>
<text text-anchor="middle" x="361" y="-156.8" font-family="Times,serif" font-size="14.00">Node1</text>
<text text-anchor="start" x="270.5" y="-141.8" font-family="Times,serif" font-size="14.00">input = {Tensor[10],Tensor[10]}</text>
<text text-anchor="start" x="270.5" y="-126.8" font-family="Times,serif" font-size="14.00">module = nn.CAddTable</text>
<text text-anchor="middle" x="361" y="-111.8" font-family="Times,serif" font-size="14.00">mapindex = {Node3,Node4}</text>
</a>
</g>
</g>
<!-- n2 -->
<g id="node2" class="node"><title>n2</title>
<g id="a_node2"><a xlink:title="[[C]]:&#45;1_">
<ellipse fill="none" stroke="black" cx="361" cy="-27" rx="94.1301" ry="26.7407"/>
<text text-anchor="middle" x="361" y="-30.8" font-family="Times,serif" font-size="14.00">Node2</text>
<text text-anchor="middle" x="361" y="-15.8" font-family="Times,serif" font-size="14.00">input = {Tensor[10]}</text>
</a>
</g>
</g>
<!-- n1&#45;&gt;n2 -->
<g id="edge1" class="edge"><title>n1&#45;&gt;n2</title>
<path fill="none" stroke="black" d="M361,-89.825C361,-81.1676 361,-72.259 361,-63.9947"/>
<polygon fill="black" stroke="black" points="364.5,-63.9384 361,-53.9384 357.5,-63.9384 364.5,-63.9384"/>
</g>
<!-- n3 -->
<g id="node3" class="node"><title>n3</title>
<g id="a_node3"><a xlink:title="[[string &quot;x1 = nn.Identity(10)()...&quot;]]:1_">
<ellipse fill="none" stroke="black" cx="222" cy="-270" rx="94.1301" ry="37.4533"/>
<text text-anchor="middle" x="222" y="-281.3" font-family="Times,serif" font-size="14.00">Node3</text>
<text text-anchor="start" x="163" y="-266.3" font-family="Times,serif" font-size="14.00">input = {Tensor[10]}</text>
<text text-anchor="middle" x="222" y="-251.3" font-family="Times,serif" font-size="14.00">module = nn.Identity</text>
</a>
</g>
</g>
<!-- n3&#45;&gt;n1 -->
<g id="edge2" class="edge"><title>n3&#45;&gt;n1</title>
<path fill="none" stroke="black" d="M258.158,-235.183C272.807,-221.483 290.045,-205.361 306.178,-190.272"/>
<polygon fill="black" stroke="black" points="308.587,-192.812 313.5,-183.425 303.805,-187.699 308.587,-192.812"/>
</g>
<!-- n4 -->
<g id="node4" class="node"><title>n4</title>
<g id="a_node4"><a xlink:title="[[string &quot;z1 = nn.CMulTable()({x2, x3})...&quot;]]:1_">
<ellipse fill="none" stroke="black" cx="501" cy="-270" rx="138.951" ry="48.1667"/>
<text text-anchor="middle" x="501" y="-288.8" font-family="Times,serif" font-size="14.00">Node4</text>
<text text-anchor="start" x="410.5" y="-273.8" font-family="Times,serif" font-size="14.00">input = {Tensor[10],Tensor[10]}</text>
<text text-anchor="start" x="410.5" y="-258.8" font-family="Times,serif" font-size="14.00">module = nn.CMulTable</text>
<text text-anchor="middle" x="501" y="-243.8" font-family="Times,serif" font-size="14.00">mapindex = {Node6,Node7}</text>
</a>
</g>
</g>
<!-- n4&#45;&gt;n1 -->
<g id="edge3" class="edge"><title>n4&#45;&gt;n1</title>
<path fill="none" stroke="black" d="M453.212,-224.625C441.404,-213.661 428.656,-201.823 416.515,-190.55"/>
<polygon fill="black" stroke="black" points="418.758,-187.856 409.048,-183.616 413.995,-192.986 418.758,-187.856"/>
</g>
<!-- n5 -->
<g id="node5" class="node"><title>n5</title>
<g id="a_node5"><a xlink:title="[[C]]:&#45;1_&#45;1">
<ellipse fill="none" stroke="black" cx="194" cy="-392" rx="194.182" ry="37.4533"/>
<text text-anchor="middle" x="194" y="-403.3" font-family="Times,serif" font-size="14.00">Node5</text>
<text text-anchor="start" x="64.5" y="-388.3" font-family="Times,serif" font-size="14.00">input = {{Tensor[10],Tensor[10],Tensor[20]}}</text>
<text text-anchor="middle" x="194" y="-373.3" font-family="Times,serif" font-size="14.00">selectindex = 1</text>
</a>
</g>
</g>
<!-- n5&#45;&gt;n3 -->
<g id="edge4" class="edge"><title>n5&#45;&gt;n3</title>
<path fill="none" stroke="black" d="M202.553,-354.344C205.267,-342.713 208.304,-329.695 211.157,-317.468"/>
<polygon fill="black" stroke="black" points="214.635,-317.965 213.499,-307.432 207.818,-316.375 214.635,-317.965"/>
</g>
<!-- n6 -->
<g id="node6" class="node"><title>n6</title>
<g id="a_node6"><a xlink:title="[[string &quot;x1 = nn.Identity(10)()...&quot;]]:2_">
<ellipse fill="none" stroke="black" cx="501" cy="-392" rx="94.1301" ry="37.4533"/>
<text text-anchor="middle" x="501" y="-403.3" font-family="Times,serif" font-size="14.00">Node6</text>
<text text-anchor="start" x="442" y="-388.3" font-family="Times,serif" font-size="14.00">input = {Tensor[10]}</text>
<text text-anchor="middle" x="501" y="-373.3" font-family="Times,serif" font-size="14.00">module = nn.Identity</text>
</a>
</g>
</g>
<!-- n6&#45;&gt;n4 -->
<g id="edge5" class="edge"><title>n6&#45;&gt;n4</title>
<path fill="none" stroke="black" d="M501,-354.344C501,-346.219 501,-337.418 501,-328.683"/>
<polygon fill="black" stroke="black" points="504.5,-328.503 501,-318.503 497.5,-328.503 504.5,-328.503"/>
</g>
<!-- n7 -->
<g id="node7" class="node"><title>n7</title>
<g id="a_node7"><a xlink:title="[[string &quot;x1 = nn.Identity(10)()...&quot;]]:3_">
<ellipse fill="none" stroke="black" cx="782" cy="-392" rx="128.54" ry="37.4533"/>
<text text-anchor="middle" x="782" y="-403.3" font-family="Times,serif" font-size="14.00">Node7</text>
<text text-anchor="start" x="699" y="-388.3" font-family="Times,serif" font-size="14.00">input = {Tensor[20]}</text>
<text text-anchor="middle" x="782" y="-373.3" font-family="Times,serif" font-size="14.00">module = nn.Linear(20 &#45;&gt; 10)</text>
</a>
</g>
</g>
<!-- n7&#45;&gt;n4 -->
<g id="edge6" class="edge"><title>n7&#45;&gt;n4</title>
<path fill="none" stroke="black" d="M711.092,-360.719C676.394,-345.901 634.12,-327.848 596.614,-311.832"/>
<polygon fill="black" stroke="black" points="597.76,-308.515 587.189,-307.807 595.011,-314.953 597.76,-308.515"/>
</g>
<!-- n8 -->
<g id="node8" class="node"><title>n8</title>
<g id="a_node8"><a xlink:title="[[C]]:&#45;1_ split at [/root/torch/install/share/lua/5.1/nngraph/gmodule.lua]:72&#45;mnode">
<ellipse fill="none" stroke="black" cx="416" cy="-616" rx="194.182" ry="37.4533"/>
<text text-anchor="middle" x="416" y="-627.3" font-family="Times,serif" font-size="14.00">Node8</text>
<text text-anchor="start" x="286.5" y="-612.3" font-family="Times,serif" font-size="14.00">input = {{Tensor[10],Tensor[10],Tensor[20]}}</text>
<text text-anchor="middle" x="416" y="-597.3" font-family="Times,serif" font-size="14.00">nSplitOutputs = 3</text>
</a>
</g>
</g>
<!-- n8&#45;&gt;n5 -->
<g id="edge7" class="edge"><title>n8&#45;&gt;n5</title>
<path fill="none" stroke="black" d="M279.598,-589.222C254.133,-578.526 230.169,-563.397 213,-542 190.174,-513.553 186.618,-471.715 188.09,-439.609"/>
<polygon fill="black" stroke="black" points="191.587,-439.757 188.726,-429.556 184.601,-439.315 191.587,-439.757"/>
</g>
<!-- n9 -->
<g id="node9" class="node"><title>n9</title>
<g id="a_node9"><a xlink:title="[[C]]:&#45;1_&#45;2">
<ellipse fill="none" stroke="black" cx="416" cy="-504" rx="194.182" ry="37.4533"/>
<text text-anchor="middle" x="416" y="-515.3" font-family="Times,serif" font-size="14.00">Node9</text>
<text text-anchor="start" x="286.5" y="-500.3" font-family="Times,serif" font-size="14.00">input = {{Tensor[10],Tensor[10],Tensor[20]}}</text>
<text text-anchor="middle" x="416" y="-485.3" font-family="Times,serif" font-size="14.00">selectindex = 2</text>
</a>
</g>
</g>
<!-- n8&#45;&gt;n9 -->
<g id="edge11" class="edge"><title>n8&#45;&gt;n9</title>
<path fill="none" stroke="black" d="M416,-578.372C416,-569.927 416,-560.829 416,-552.011"/>
<polygon fill="black" stroke="black" points="419.5,-551.843 416,-541.844 412.5,-551.844 419.5,-551.843"/>
</g>
<!-- n10 -->
<g id="node10" class="node"><title>n10</title>
<g id="a_node10"><a xlink:title="[[C]]:&#45;1_&#45;3">
<ellipse fill="none" stroke="black" cx="823" cy="-504" rx="194.182" ry="37.4533"/>
<text text-anchor="middle" x="823" y="-515.3" font-family="Times,serif" font-size="14.00">Node10</text>
<text text-anchor="start" x="693.5" y="-500.3" font-family="Times,serif" font-size="14.00">input = {{Tensor[10],Tensor[10],Tensor[20]}}</text>
<text text-anchor="middle" x="823" y="-485.3" font-family="Times,serif" font-size="14.00">selectindex = 3</text>
</a>
</g>
</g>
<!-- n8&#45;&gt;n10 -->
<g id="edge12" class="edge"><title>n8&#45;&gt;n10</title>
<path fill="none" stroke="black" d="M526.408,-585.16C580.927,-570.425 646.809,-552.619 702.619,-537.535"/>
<polygon fill="black" stroke="black" points="703.818,-540.837 712.558,-534.849 701.991,-534.079 703.818,-540.837"/>
</g>
<!-- n9&#45;&gt;n6 -->
<g id="edge8" class="edge"><title>n9&#45;&gt;n6</title>
<path fill="none" stroke="black" d="M444.068,-466.677C451.623,-456.9 459.868,-446.229 467.679,-436.121"/>
<polygon fill="black" stroke="black" points="470.484,-438.216 473.829,-428.163 464.945,-433.936 470.484,-438.216"/>
</g>
<!-- n10&#45;&gt;n7 -->
<g id="edge9" class="edge"><title>n10&#45;&gt;n7</title>
<path fill="none" stroke="black" d="M809.348,-466.372C806.063,-457.558 802.513,-448.034 799.093,-438.859"/>
<polygon fill="black" stroke="black" points="802.365,-437.616 795.593,-429.468 795.806,-440.061 802.365,-437.616"/>
</g>
<!-- n11 -->
<g id="node11" class="node"><title>n11</title>
<g id="a_node11"><a xlink:title="[[C]]:&#45;1_">
<ellipse fill="none" stroke="black" cx="416" cy="-717" rx="184.332" ry="26.7407"/>
<text text-anchor="middle" x="416" y="-720.8" font-family="Times,serif" font-size="14.00">Node11</text>
<text text-anchor="middle" x="416" y="-705.8" font-family="Times,serif" font-size="14.00">input = {Tensor[10],Tensor[10],Tensor[20]}</text>
</a>
</g>
</g>
<!-- n11&#45;&gt;n8 -->
<g id="edge10" class="edge"><title>n11&#45;&gt;n8</title>
<path fill="none" stroke="black" d="M416,-689.989C416,-681.914 416,-672.753 416,-663.716"/>
<polygon fill="black" stroke="black" points="419.5,-663.631 416,-653.631 412.5,-663.631 419.5,-663.631"/>
</g>
</g>
</svg>
